<svg width="887" height="317" viewBox="0 0 887 317" fill="none" xmlns="http://www.w3.org/2000/svg">
<path d="M874.274 141.505V193.576H886.042V212.404H849.386L844.149 200.166C840.148 205.893 835.5 209.815 830.205 211.934C824.949 214.052 817.594 215.111 808.141 215.111C803.237 215.111 798.668 214.248 794.431 212.522C790.234 210.835 786.645 208.521 783.664 205.579C780.722 202.637 778.408 199.107 776.721 194.988C775.074 190.87 774.25 186.457 774.25 181.75C774.25 173.63 777.427 166.903 783.782 161.568C790.136 156.194 798.256 153.508 808.141 153.508C816.103 153.508 822.693 154.272 827.91 155.802C833.127 157.293 837.599 159.686 841.325 162.98V138.033C841.325 134.503 840.835 131.561 839.854 129.208C838.913 126.815 837.481 124.991 835.559 123.736C833.637 122.441 831.48 121.539 829.087 121.029C826.694 120.519 823.831 120.264 820.497 120.264C817.829 120.264 815.417 120.833 813.26 121.97C814.476 124.52 815.083 127.207 815.083 130.031C815.083 135.248 813.24 139.7 809.553 143.387C805.905 147.035 801.472 148.859 796.255 148.859C791.038 148.859 786.586 147.035 782.899 143.387C779.251 139.7 777.427 135.248 777.427 130.031C777.427 127.364 777.937 124.854 778.957 122.5C780.016 120.146 781.467 118.087 783.311 116.322C784.88 114.675 786.508 113.204 788.195 111.909C789.881 110.576 791.999 109.261 794.549 107.967C797.138 106.633 799.943 105.535 802.963 104.672C805.983 103.809 809.592 103.123 813.789 102.613C818.025 102.064 822.654 101.789 827.675 101.789C834.186 101.789 840.305 102.75 846.032 104.672C851.759 106.594 856.701 109.261 860.859 112.674C865.017 116.087 868.293 120.284 870.685 125.265C873.078 130.247 874.274 135.66 874.274 141.505ZM841.325 186.28V178.161C838.893 175.846 836.147 173.905 833.088 172.336C830.068 170.727 827.263 169.923 824.674 169.923C819.104 169.923 815.182 170.865 812.906 172.748C810.631 174.591 809.494 177.592 809.494 181.75C809.494 186.731 810.475 190.399 812.436 192.752C814.397 195.106 818.045 196.283 823.38 196.283C826.4 196.283 829.538 195.322 832.794 193.4C836.089 191.438 838.932 189.065 841.325 186.28Z" fill="#2652D0"/>
<path d="M697.479 66.4883H742.195V193.578H753.963V212.406H697.479V193.578H709.246V85.3164H697.479V66.4883Z" fill="#2652D0"/>
<path d="M581.761 104.143H618.299L625.713 118.44C632.656 107.339 642.481 101.789 655.19 101.789C663.702 101.789 670.449 104.417 675.431 109.673C680.451 114.89 682.962 121.676 682.962 130.031C682.962 135.248 681.118 139.7 677.431 143.387C673.783 147.035 669.351 148.859 664.134 148.859C658.917 148.859 654.465 147.035 650.778 143.387C647.13 139.7 645.306 135.248 645.306 130.031C645.306 127.913 645.639 125.873 646.306 123.912C645.247 123.285 644.129 122.971 642.952 122.971C640.324 122.971 637.598 124.697 634.774 128.148C631.989 131.561 629.302 136.68 626.713 143.505L626.478 193.576H652.366V212.404H581.761V193.576H593.528V122.971H581.761V104.143Z" fill="#2652D0"/>
<path d="M543.532 141.505V193.576H555.3V212.404H518.644L513.407 200.166C509.406 205.893 504.758 209.815 499.463 211.934C494.206 214.052 486.852 215.111 477.398 215.111C472.495 215.111 467.926 214.248 463.689 212.522C459.492 210.835 455.903 208.521 452.922 205.579C449.98 202.637 447.666 199.107 445.979 194.988C444.332 190.87 443.508 186.457 443.508 181.75C443.508 173.63 446.685 166.903 453.04 161.568C459.394 156.194 467.514 153.508 477.398 153.508C485.361 153.508 491.951 154.272 497.168 155.802C502.385 157.293 506.857 159.686 510.583 162.98V138.033C510.583 134.503 510.093 131.561 509.112 129.208C508.171 126.815 506.739 124.991 504.817 123.736C502.895 122.441 500.737 121.539 498.345 121.029C495.952 120.519 493.089 120.264 489.754 120.264C487.087 120.264 484.675 120.833 482.517 121.97C483.733 124.52 484.341 127.207 484.341 130.031C484.341 135.248 482.498 139.7 478.811 143.387C475.163 147.035 470.73 148.859 465.513 148.859C460.296 148.859 455.844 147.035 452.157 143.387C448.509 139.7 446.685 135.248 446.685 130.031C446.685 127.364 447.195 124.854 448.215 122.5C449.274 120.146 450.725 118.087 452.569 116.322C454.138 114.675 455.766 113.204 457.452 111.909C459.139 110.576 461.257 109.261 463.807 107.967C466.396 106.633 469.2 105.535 472.221 104.672C475.241 103.809 478.85 103.123 483.047 102.613C487.283 102.064 491.912 101.789 496.933 101.789C503.444 101.789 509.563 102.75 515.29 104.672C521.017 106.594 525.959 109.261 530.117 112.674C534.275 116.087 537.55 120.284 539.943 125.265C542.336 130.247 543.532 135.66 543.532 141.505ZM510.583 186.28V178.161C508.151 175.846 505.405 173.905 502.346 172.336C499.325 170.727 496.521 169.923 493.932 169.923C488.362 169.923 484.439 170.865 482.164 172.748C479.889 174.591 478.752 177.592 478.752 181.75C478.752 186.731 479.732 190.399 481.694 192.752C483.655 195.106 487.303 196.283 492.637 196.283C495.658 196.283 498.796 195.322 502.052 193.4C505.346 191.438 508.19 189.065 510.583 186.28Z" fill="#2652D0"/>
<path d="M300 212.406V193.578H318.828V85.3164H300V66.4883H361.191C375.43 66.4883 386.59 66.9394 394.67 67.8416C402.79 68.7437 409.105 70.1558 413.616 72.0779C418.166 73.9607 422.344 76.8045 426.148 80.6094C429.561 84.022 432.13 88.3171 433.856 93.4949C435.621 98.6334 436.504 104.145 436.504 110.028C436.504 114.814 435.876 119.246 434.621 123.326C433.405 127.366 431.66 130.955 429.385 134.093C427.149 137.192 424.383 139.977 421.088 142.448C417.833 144.88 414.224 146.939 410.262 148.626C406.3 150.313 401.907 151.705 397.083 152.803C392.297 153.902 387.335 154.706 382.197 155.216C377.097 155.687 371.665 155.922 365.898 155.922H356.484V193.578H380.02V212.406H300ZM356.484 137.094H365.898C384.727 137.094 394.141 128.464 394.141 111.205C394.141 108.224 393.925 105.517 393.493 103.085C393.101 100.653 392.356 98.3 391.258 96.0249C390.159 93.7498 388.747 91.8474 387.021 90.3176C385.295 88.7878 383.04 87.5719 380.255 86.6697C377.47 85.7675 374.253 85.3164 370.605 85.3164H356.484V137.094Z" fill="#2652D0"/>
<g clip-path="url(#clip0_147_181)">
<path d="M182.16 0H51.5547C23.0851 0 0 23.0851 0 51.5547V201.445C0 229.915 23.0851 253 51.5547 253H186.829L239.233 315.114C242.498 318.99 253 315.658 253 310.283V70.84L182.16 0Z" fill="#2652D0"/>
<path d="M182.16 0L253 70.84L186.151 70.6586C184.05 70.6586 182.351 68.9497 182.342 66.8493L182.16 0Z" fill="#A2B4EC"/>
<path d="M192.853 102.156H52.5097C46.7097 102.156 42.0078 106.858 42.0078 112.658C42.0078 118.458 46.7097 123.16 52.5097 123.16H192.853C198.653 123.16 203.355 118.458 203.355 112.658C203.355 106.858 198.653 102.156 192.853 102.156Z" fill="white"/>
<path d="M111.702 191.898H52.5097C46.7097 191.898 42.0078 196.6 42.0078 202.4C42.0078 208.2 46.7097 212.902 52.5097 212.902H111.702C117.502 212.902 122.204 208.2 122.204 202.4C122.204 196.6 117.502 191.898 111.702 191.898Z" fill="white"/>
<path d="M192.853 147.027H52.5097C46.7097 147.027 42.0078 151.729 42.0078 157.529C42.0078 163.329 46.7097 168.031 52.5097 168.031H192.853C198.653 168.031 203.355 163.329 203.355 157.529C203.355 151.729 198.653 147.027 192.853 147.027Z" fill="white"/>
</g>
<defs>
<clipPath id="clip0_147_181">
<rect width="253" height="316.794" fill="white"/>
</clipPath>
</defs>
</svg>
