<?xml version="1.0" encoding="utf-8"?>
<!-- Generator: Adobe Illustrator 27.6.1, SVG Export Plug-In . SVG Version: 6.00 Build 0)  -->
<svg version="1.1" id="Layer_1" xmlns="http://www.w3.org/2000/svg" xmlns:xlink="http://www.w3.org/1999/xlink" x="0px" y="0px"
	 viewBox="0 0 128 128" style="enable-background:new 0 0 128 128;" xml:space="preserve">
<style type="text/css">
	.st0{fill:none;}
</style>
<path class="st0" d="M50.4,78.5c-9.9,0.4-19.5,2.7-28.5,6.9l24.2-65.7c0.7-2,1.9-3.2,3.4-3.2h29c1.5,0,2.7,1.2,3.4,3.2l24.2,65.7
	c0,0-11.6-7-28.5-7L67,45.5c-0.4-1.7-1.6-2.8-2.9-2.8c-1.3,0-2.5,1.1-2.9,2.7L50.4,78.5z M45.1,86.5c-2,6.6-0.6,15.8,4.2,20.2
	c0.1-0.2,0.1-0.5,0.2-0.7c0.5-2.7,2.9-4.6,5.7-4.5c2.8,0.1,4.3,1.5,4.7,4.7c0.2,1.1,0.2,2.3,0.2,3.5v0.4c0,2.7,0.7,5.2,2.2,7.4
	c1.4,2.2,3.4,3.9,5.7,4.9v-0.3l-0.2-0.3c-1.8-5.6-0.5-9.5,4.4-12.8l1.5-1c1.1-0.7,2.2-1.4,3.2-2.2c3.8-2.6,6.3-6.8,6.8-11.4
	c0.3-2,0.1-4-0.6-6L82.3,89l-1.6,1c-7,3.2-14.8,4.2-22.4,2.7C53.3,92,48.6,90.7,45.1,86.5z"/>
<polygon points="30.4,93.5 40.1,107 98.6,64.4 56.2,21 43.3,33.5 73.4,62.6 "/>
</svg>
